<svg width="118" height="30" viewBox="0 0 118 30" fill="none" xmlns="http://www.w3.org/2000/svg">
<g clip-path="url(#clip0_682_65610)">
<mask id="mask0_682_65610" style="mask-type:luminance" maskUnits="userSpaceOnUse" x="2" y="4" width="12" height="19">
<path fill-rule="evenodd" clip-rule="evenodd" d="M8.59118 12.233C8.59118 10.614 9.0161 9.01423 9.8898 7.59817C10.7826 9.02873 11.2361 10.6478 11.2361 12.2814C11.2361 13.8859 10.7969 15.505 9.92322 16.9017C9.04952 15.4857 8.59118 13.8666 8.59118 12.233ZM6.79126 12.233C6.79126 14.3934 7.45012 16.5779 8.76306 18.4145L8.72964 18.4483C7.09682 20.1012 4.95792 20.9518 2.80469 21.0049L4.45184 22.6772C6.45706 22.3195 8.39066 21.3626 9.93755 19.7967L9.95664 19.7774L10.0091 19.729L10.0425 19.6952L11.2361 18.4821C11.2027 18.4483 11.1693 18.4145 11.1359 18.3806C12.4154 16.5586 13.0695 14.4127 13.0695 12.2669C13.0695 10.1017 12.4154 7.92198 11.1024 6.0806C10.7826 5.6408 10.4293 5.2155 10.0234 4.80469C7.61722 6.74756 6.79126 9.54103 6.79126 12.233Z" fill="white"/>
</mask>
<g mask="url(#mask0_682_65610)">
<path d="M22.9637 14.0772L7.80286 29.0388L-7.08594 13.5631L8.09302 -1.39844L22.9637 14.0772Z" fill="url(#paint0_linear_682_65610)"/>
</g>
<mask id="mask1_682_65610" style="mask-type:alpha" maskUnits="userSpaceOnUse" x="6" y="16" width="19" height="11">
<path fill-rule="evenodd" clip-rule="evenodd" d="M12.6025 19.6057C14.0014 18.7212 15.5817 18.2766 17.1668 18.2766C18.7805 18.2766 20.3799 18.7357 21.7931 19.6395C20.3942 20.5239 18.8139 20.9492 17.2145 20.9492C15.6151 20.9686 14.0157 20.5094 12.6025 19.6057ZM11.1225 18.3974C11.089 18.3636 11.0556 18.3297 11.0222 18.2959L9.82857 19.5042L9.79515 19.538L9.74264 19.5912L9.72831 19.6057C8.19575 21.1909 7.25043 23.1337 6.88281 25.1588L8.00955 26.2994L8.54905 26.8455C8.5968 24.6658 9.42276 22.52 11.0747 20.8477L11.1081 20.8139C12.9224 22.143 15.0613 22.8099 17.2145 22.8099C19.8929 22.8099 22.6334 21.9545 24.5336 19.5525C24.1325 19.1465 23.7124 18.7889 23.2732 18.4651C21.4541 17.136 19.32 16.469 17.1668 16.469C15.0613 16.4545 12.9415 17.1022 11.1225 18.3974Z" fill="black"/>
</mask>
<g mask="url(#mask1_682_65610)">
<path d="M30.7006 21.6221L15.6848 36.8407L0.632812 21.6405L15.6485 6.42188L30.7006 21.6221Z" fill="url(#paint1_linear_682_65610)"/>
</g>
<mask id="mask2_682_65610" style="mask-type:alpha" maskUnits="userSpaceOnUse" x="10" y="6" width="14" height="13">
<path fill-rule="evenodd" clip-rule="evenodd" d="M12.45 17.0689C12.4165 15.9622 12.5645 14.8361 12.9369 13.7825C13.3571 12.5694 14.0446 11.4288 15.0042 10.4574C15.9639 9.48593 17.0906 8.78998 18.289 8.36467C19.3298 7.9877 20.4422 7.83304 21.5355 7.86687C21.5689 8.97846 21.4162 10.0998 21.0485 11.1582C20.6284 12.3664 19.9361 13.507 18.9765 14.4785C18.0168 15.4499 16.8901 16.1507 15.6965 16.576C14.756 16.9143 13.7772 17.0689 12.7842 17.0689C12.6648 17.0689 12.5645 17.0689 12.45 17.0689ZM17.7829 6.91477C16.3697 7.40774 15.0568 8.24385 13.93 9.36994C12.8033 10.5106 11.9916 11.8396 11.5046 13.2702C10.9842 14.7491 10.8171 16.3198 10.9842 17.8712L11.0511 18.4802L11.6574 18.5527C13.1709 18.7218 14.7369 18.5527 16.2026 18.021C17.5967 17.5281 18.9096 16.7113 20.0364 15.5852L20.0698 15.5514C21.1822 14.4301 21.9891 13.1011 22.4761 11.6657C23.0012 10.1868 23.1683 8.62082 23.0012 7.06943L22.9344 6.45564L22.3281 6.38798C21.9557 6.35414 21.588 6.32031 21.2156 6.32031C20.0555 6.32031 18.8953 6.5233 17.7829 6.91477Z" fill="black"/>
</mask>
<g mask="url(#mask2_682_65610)">
<path d="M3.78125 12.1461L17.3643 -0.90625L30.2583 12.8437L16.6752 25.8961L3.78125 12.1461Z" fill="url(#paint2_linear_682_65610)"/>
</g>
<mask id="mask3_682_65610" style="mask-type:alpha" maskUnits="userSpaceOnUse" x="0" y="0" width="30" height="30">
<path fill-rule="evenodd" clip-rule="evenodd" d="M2.06598 14.5812C2.06598 7.40899 7.81905 1.58522 14.9042 1.58522C21.9893 1.58522 27.7471 7.40899 27.7471 14.5812C27.7471 21.7533 21.9893 27.5819 14.9042 27.5819C7.81905 27.5819 2.06598 21.7533 2.06598 14.5812ZM0.5 14.5812C0.5 22.6233 6.96445 29.1623 14.9042 29.1623C22.8487 29.1623 29.3083 22.6233 29.3083 14.5812C29.3083 6.54388 22.8487 0 14.9042 0C6.96445 0 0.5 6.54388 0.5 14.5812Z" fill="black"/>
</mask>
<g mask="url(#mask3_682_65610)">
<path d="M46.0344 15.0758L14.4251 45.8985L-16.0234 13.9009L15.5858 -16.9219L46.0344 15.0758Z" fill="url(#paint3_linear_682_65610)"/>
</g>
<mask id="mask4_682_65610" style="mask-type:luminance" maskUnits="userSpaceOnUse" x="38" y="6" width="80" height="17">
<path d="M117.655 6.44531H38.9844V22.7219H117.655V6.44531Z" fill="white"/>
</mask>
<g mask="url(#mask4_682_65610)">
<path fill-rule="evenodd" clip-rule="evenodd" d="M42.1337 22.115V15.5971L39.1172 6.69531H41.1106L43.1304 12.8292H43.2186L45.1503 6.69531H47.1083L44.1888 15.6328V22.115H42.1337Z" fill="white"/>
<path fill-rule="evenodd" clip-rule="evenodd" d="M61.1055 18.4208C61.1055 21.0011 59.8266 22.2601 57.5333 22.2601C55.1695 22.2601 53.8906 20.8761 53.8906 18.3583V10.519C53.8906 8.00112 55.2312 6.55469 57.5333 6.55469C59.8266 6.55469 61.132 8.06362 61.132 10.5815V18.4208H61.1055ZM59.0857 10.4207C59.0857 9.23326 58.5212 8.53683 57.4716 8.53683C56.4749 8.53683 55.9104 9.19755 55.9104 10.394V18.51C55.9104 19.7065 56.4749 20.3404 57.498 20.3404C58.4947 20.3404 59.0857 19.769 59.0857 18.51V10.4207Z" fill="white"/>
<path fill-rule="evenodd" clip-rule="evenodd" d="M73.0739 6.63281H75.0938V18.2757C75.0938 20.7935 73.8854 22.1775 71.5216 22.1775C69.2195 22.1775 67.9141 20.8828 67.9141 18.3382V6.63281H69.9339V18.4274C69.9339 19.6596 70.4984 20.2578 71.4863 20.2578C72.5447 20.2578 73.0739 19.6239 73.0739 18.4274V6.63281Z" fill="white"/>
<path fill-rule="evenodd" clip-rule="evenodd" d="M87.811 22.115L87.2201 18.4899H84.4241L83.8596 22.115H81.875L84.4505 6.69531H87.2201L89.8044 22.115H87.811ZM84.7063 16.6953H86.9378L85.853 9.93639H85.7559L84.7063 16.6953Z" fill="white"/>
<path fill-rule="evenodd" clip-rule="evenodd" d="M98.641 15.9721V22.115H96.5859V6.69531H100.811C102.928 6.69531 103.704 7.82031 103.704 9.77567V12.8917C103.704 14.8382 102.928 15.9721 100.811 15.9721H98.641ZM98.641 14.1774H100.414C101.375 14.1774 101.781 13.6149 101.781 12.5792V10.0256C101.781 9.07924 101.375 8.57924 100.414 8.57924H98.641V14.1774Z" fill="white"/>
<path fill-rule="evenodd" clip-rule="evenodd" d="M112.54 15.9721V22.115H110.484V6.69531H114.718C116.826 6.69531 117.602 7.82031 117.602 9.77567V12.8917C117.602 14.8382 116.826 15.9721 114.718 15.9721H112.54ZM112.54 14.1774H114.312C115.274 14.1774 115.68 13.6149 115.68 12.5792V10.0256C115.68 9.07924 115.274 8.57924 114.312 8.57924H112.54V14.1774Z" fill="white"/>
</g>
</g>
<defs>
<linearGradient id="paint0_linear_682_65610" x1="-7.08594" y1="-1.39844" x2="23.3284" y2="-1.02956" gradientUnits="userSpaceOnUse">
<stop stop-color="#986DB5"/>
<stop offset="1" stop-color="#38168E"/>
</linearGradient>
<linearGradient id="paint1_linear_682_65610" x1="0.632813" y1="6.42188" x2="31.0655" y2="6.79142" gradientUnits="userSpaceOnUse">
<stop stop-color="#986DB5"/>
<stop offset="1" stop-color="#38168E"/>
</linearGradient>
<linearGradient id="paint2_linear_682_65610" x1="3.78125" y1="-0.90625" x2="30.5796" y2="-0.58103" gradientUnits="userSpaceOnUse">
<stop stop-color="#986DB5"/>
<stop offset="1" stop-color="#38168E"/>
</linearGradient>
<linearGradient id="paint3_linear_682_65610" x1="-16.0234" y1="-16.9219" x2="46.7875" y2="-16.1596" gradientUnits="userSpaceOnUse">
<stop stop-color="#986DB5"/>
<stop offset="1" stop-color="#38168E"/>
</linearGradient>
<clipPath id="clip0_682_65610">
<rect width="118" height="30" fill="white"/>
</clipPath>
</defs>
</svg>
